<svg xmlns="http://www.w3.org/2000/svg" xmlns:xlink="http://www.w3.org/1999/xlink" viewBox="0 0 750 500"><defs><style>.cls-1,.cls-12,.cls-23,.cls-24,.cls-30,.cls-31,.cls-32,.cls-38,.cls-39,.cls-40,.cls-6{fill:none;}.cls-2{fill:#fff;}.cls-3{opacity:0.24;}.cls-4{fill:#ba94f0;}.cls-5{opacity:0.43;}.cls-6{stroke:#6ca7b5;}.cls-23,.cls-24,.cls-30,.cls-31,.cls-32,.cls-39,.cls-40,.cls-6{stroke-linecap:round;stroke-linejoin:round;}.cls-39,.cls-6{stroke-width:2px;}.cls-7{opacity:0.56;}.cls-8{opacity:0.39;}.cls-9{fill:#6ca7b5;}.cls-10{fill:#a3d1de;}.cls-11{fill:#e1f6fb;}.cls-12{stroke:#ba94f0;}.cls-12,.cls-38{stroke-miterlimit:10;}.cls-13{fill:#acdae5;}.cls-14{clip-path:url(#clip-path);}.cls-15{fill:#ffcad0;}.cls-16{fill:#267ed0;}.cls-17{fill:#212a6b;}.cls-18{fill:#143244;}.cls-19{fill:#fec9cf;}.cls-20{fill:#ee84aa;}.cls-21{fill:#561e15;}.cls-22{fill:#0e1235;}.cls-23,.cls-31{stroke:#561e15;}.cls-23{stroke-width:1.03px;}.cls-24,.cls-32{stroke:#ee84aa;}.cls-24{stroke-width:0.77px;}.cls-25{fill:#172156;}.cls-26{fill:#1d6499;}.cls-27{fill:#feb161;}.cls-28{fill:#255c63;}.cls-29{fill:#194248;}.cls-30{stroke:#194248;}.cls-32{stroke-width:0.75px;}.cls-33{fill:#265f66;}.cls-34{fill:#2c7277;}.cls-35{fill:#29686d;}.cls-36{fill:#87bcca;}.cls-37{fill:#6cabbc;}.cls-38{stroke:#6cabbc;}.cls-39,.cls-40{stroke:#fff;}.cls-40{stroke-width:2.22px;}</style><clipPath id="clip-path"><rect class="cls-1" x="197.5" y="78.5" width="259.06" height="195.55"/></clipPath></defs><g id="BACKGROUND"><path class="cls-2" d="M61.6,437.35a85.12,85.12,0,0,1-19-19.1C27,396.52,23.19,367.73,26.87,341.73,28.39,331,33.14,325,37.4,315.53c5.69-12.66,8.41-28.52,9.52-42.27,2.06-25.49-4.52-50.82-6.41-76.32-1.62-21.84.58-47.7,15.25-65.22,15.6-18.62,43.75-23,66.71-23.08,34.51-.13,67.51,4.08,101.65-3s65.1-25.06,95.25-42c40.79-22.87,86.47-45.2,132.4-36.37,20.58,3.95,39.42,13.94,59,21.32,38.91,14.64,81.34.84,120.25,15.45,21.63,8.11,41,26.59,43.13,49.59,1.76,18.87-7.93,36.62-15.52,54-6.9,15.78-14.12,37.58-3.37,53.07,9.42,13.57,20.94,27.17,31.32,40.32,22.18,28.1,48.29,57.57,51.06,95,3.25,43.81-29.13,84.6-69.31,102.36s-86.27,16.4-129.56,8.95-85.47-19.51-129-25c-46.36-5.86-88-5.52-134.34,2.64-44.6,7.86-89.32,18.12-134.57,16.39C113,460.33,83.63,453.52,61.6,437.35Z"/></g><g id="OBJECTS"><g class="cls-3"><path class="cls-4" d="M385.71,415.65A28,28,0,0,1,397,398.21"/><path class="cls-4" d="M385.53,417.61c.25-5.82,2.5-19.83,7.82-28.6"/><path class="cls-4" d="M385.61,416.89a136,136,0,0,0-.78-32.14"/><path class="cls-4" d="M397.34,395.23c1.23-2.2,2.92-4.45,5.39-4.93,2.06-.4,4.11.54,6.17.94,1.74.33,3.52.28,5.28.45a8.81,8.81,0,0,1,4.92,1.72,4.21,4.21,0,0,1,1.4,4.73c-.87,2-3.37,2.54-5.52,2.51-3.71,0-7.32-1.17-11-1.66a19.56,19.56,0,0,0-5.35,0c-1.35.2-3.39,1.52-4.6,1.34A30.17,30.17,0,0,0,397.34,395.23Z"/><path class="cls-4" d="M396,380.71c1.73-3.75,4.46-7.42,8.44-8.53,3.35-.95,6.91.1,10.39.19a41.4,41.4,0,0,1,4.86.12,5.64,5.64,0,0,1,4.07,2.37c1.3,2.18.05,5.2-2.09,6.56s-4.86,1.43-7.39,1.15-5-.88-7.57-.68a16.45,16.45,0,0,0-8.8,3.8c-2,1.59-3.57,4.19-5.63,5.53C391.22,390.32,395.32,382.15,396,380.71Z"/><path class="cls-4" d="M387.87,374.67c-.64-3.95-3.6-7.17-4.56-11.05-.71-2.92-.26-6-1-8.93a11.13,11.13,0,0,0-4.06-6.11,6.49,6.49,0,0,0-4.91-1.48c-2.64.47-4.36,3.32-4.37,6s1.28,5.2,2.73,7.46,3.12,4.44,4,7c1.27,3.61.85,7.65,2.16,11.24A12.34,12.34,0,0,0,380.5,383c.73.76,3.07,3.09,4.25,2.86s2.13-4,2.47-5A13.21,13.21,0,0,0,387.87,374.67Z"/><path class="cls-4" d="M385.51,415.91c-.68-9.17-3-19.53-8.17-27.16"/><path class="cls-4" d="M376.62,381.67a16.8,16.8,0,0,0-4.72-7.27,20.44,20.44,0,0,0-8-3.72,28,28,0,0,0-9.09-1.15,14.4,14.4,0,0,0-8.46,3.19,6.57,6.57,0,0,0-2.27,3.39,3.61,3.61,0,0,0,1.21,3.71,5.45,5.45,0,0,0,2.93.75c4.51.25,9.05-.05,13.52.59s9,2.36,11.87,5.86a21.28,21.28,0,0,0,2.09,2.53c.44.4,1.79,1.41,2.44.93s.14-1.8,0-2.36A39.74,39.74,0,0,0,376.62,381.67Z"/><path class="cls-4" d="M385.32,416.89a31.77,31.77,0,0,0-9.82-21.29"/><path class="cls-4" d="M372.71,390.91a33.56,33.56,0,0,0-6.65-2.44c-2.19-.61-4.47-1.23-6.69-.8-2.48.48-4.51,2.17-6.42,3.8a26.69,26.69,0,0,0-4.14,4.09,3.07,3.07,0,0,0-.78,2.62c.37,1.17,1.83,1.57,3.05,1.51,2.2-.13,4.22-1.17,6.27-2a29.33,29.33,0,0,1,10.27-1.94c3.17,0,6.74-.06,9.72,1.2-.6-.25-1.5-2.71-1.9-3.32a7.25,7.25,0,0,0-2.28-2.51Z"/></g><g class="cls-5"><path class="cls-4" d="M610.51,407.41a15,15,0,0,1,6.16-7.7c2.65-1.51,5.91-1.9,8.09-4.07,1.77-1.75,2.43-4.29,3.22-6.65s2-4.86,4.19-5.92c2.6-1.25,5.52,0,7.82,1.47s4.65,3.29,7.46,3.19c2.25-.08,4.39-1.39,6.64-1.55,3.11-.21,5.75,1.78,8.11,3.68,1.7,1.37,3.48,2.86,4.07,5,.72,2.61-.61,5.63-2.77,7.44a12.38,12.38,0,0,1-7.71,2.6c-2.47.06-5.35-.23-7.08,1.68s-1.24,4.81-2.39,7.05a7.2,7.2,0,0,1-6.42,3.49,19.47,19.47,0,0,1-7.09-1.87,17.33,17.33,0,0,0-7.13-1.7c-2.78.12-5.42,1.47-8,2.58-2.26.94-6.51,2.68-8.29.33C607.75,414.37,609.62,409.69,610.51,407.41Z"/><path class="cls-4" d="M609.83,416.18A98.12,98.12,0,0,1,655.43,394"/><path class="cls-4" d="M623,398.6c.31-3.77-.4-7.7.84-11.27,2.2-6.36,9.87-9.68,11.79-16.13,2.3-7.71-4.72-15.58-3.5-23.53.51-3.35,2.44-6.3,3.64-9.47s1.51-7.15-.82-9.61-6.87-2.28-9.77-.22-4.57,5.4-5.93,8.69-2.54,6.73-4.82,9.45c-4.18,5-11.68,7.15-14,13.22s2.07,12.72,2.85,19.28c.6,5-.92,9.9-2.26,14.72s-2.53,9.92-1.3,14.76c1.64,6.45,7.45,10.56,13,6.42S622.42,405.69,623,398.6Z"/><path class="cls-4" d="M609.23,416.49c-2.21-23,2.85-48,14.67-67.87"/><path class="cls-4" d="M594.51,407.81c-2.43-3.43-3.82-7.72-7.11-10.33-3.78-3-9-3-13.83-3.42s-10.23-1.75-12.46-6c-1.23-2.35-1.22-5.14-2.07-7.64-.94-2.75-2.87-5-4.21-7.61s-2.05-5.84-.49-8.29,5-3.2,7.86-2.41,5.16,2.79,7.27,4.83,4.19,4.22,6.81,5.55c4.33,2.22,9.47,1.8,14.33,1.6s10.17,0,13.92,3.1c3.09,2.55,4.49,6.56,5.76,10.37,1.82,5.44,3.68,10.88,5.45,16.34,1.09,3.36,3.17,8.51-.33,11.16C609.24,419.69,598.07,412.82,594.51,407.81Z"/><path class="cls-4" d="M613.46,415.24c-7.72-17.92-24.06-33.17-43.62-39.91"/></g><g class="cls-5"><path class="cls-4" d="M145.44,409.36c2.2-3.29,3.48-7.52,6.45-9.92,3.41-2.75,8.11-2.39,12.42-2.43s9.18-1,11.22-5.18c1.11-2.28,1.13-5.1,1.91-7.57.86-2.7,2.61-4.87,3.83-7.37s1.89-5.75.51-8.34a6.36,6.36,0,0,0-7-3c-2.55.59-4.64,2.43-6.56,4.34s-3.78,3.95-6.14,5.11c-3.9,1.92-8.5,1.12-12.86.55s-9.11-.74-12.49,2.12c-2.79,2.35-4.08,6.3-5.25,10-1.67,5.37-3.38,10.72-5,16.11-1,3.32-2.91,8.36.21,11.29C132.14,420.28,142.21,414.16,145.44,409.36Z"/><path class="cls-4" d="M128.4,415.48c7.06-17.55,21.82-31.75,39.4-37.12"/><path class="cls-4" d="M118.72,400.15c-.24-3.47.32-7.08-.67-10.37-1.77-5.85-7.91-8.9-9.45-14.83-1.84-7.09,3.78-14.33,2.81-21.65-.41-3.08-2-5.79-2.92-8.71s-1.21-6.57.66-8.84,5.5-2.1,7.82-.2,3.67,5,4.75,8,2,6.2,3.87,8.7c3.34,4.57,9.35,6.57,11.17,12.16s-1.65,11.7-2.28,17.73c-.47,4.56.74,9.11,1.82,13.54s2,9.12,1,13.58c-1.32,5.92-6,9.71-10.44,5.9S119.18,406.67,118.72,400.15Z"/><path class="cls-4" d="M129.74,416.6c1.78-21.17-2.28-44.14-11.75-62.43"/><path class="cls-4" d="M129.44,404.47c-1.54-4.3-4.09-8.44-7.61-10.88-3.23-2.24-7.17-3-9.85-6.11-2.18-2.51-3-6-4-9.23s-2.49-6.72-5.19-8.33c-3.17-1.88-6.66-.43-9.4,1.39s-5.53,4.08-8.91,3.73c-2.71-.28-5.33-2.22-8-2.6-3.75-.52-6.9,2-9.7,4.35-2,1.71-4.12,3.59-4.78,6.44-.81,3.47.86,7.66,3.52,10.27a15.13,15.13,0,0,0,9.36,4.1c3,.27,6.43.11,8.56,2.82s1.61,6.58,3,9.7a9.39,9.39,0,0,0,7.83,5.2c3,.19,5.79-.92,8.5-2s5.54-2.09,8.55-1.75c3.36.38,6.57,2.41,9.77,4.1,2.75,1.46,7.91,4.12,10,1.09C132.92,414.07,130.56,407.61,129.44,404.47Z"/><path class="cls-4" d="M130.46,416.36C114.15,399.9,95.24,388.48,75,382.84"/></g><path class="cls-6" d="M600,127a5.75,5.75,0,1,1-5.75-5.74A5.75,5.75,0,0,1,600,127Z"/><line class="cls-6" x1="598.41" y1="130.96" x2="602.46" y2="135.02"/><line class="cls-6" x1="386.42" y1="71.7" x2="392.46" y2="77.74"/><line class="cls-6" x1="392.46" y1="71.7" x2="386.42" y2="77.74"/><line class="cls-6" x1="483.97" y1="375.34" x2="490.01" y2="381.38"/><line class="cls-6" x1="490.01" y1="375.34" x2="483.97" y2="381.38"/><line class="cls-6" x1="67.75" y1="320.63" x2="67.75" y2="329.17"/><line class="cls-6" x1="72.03" y1="324.9" x2="63.48" y2="324.9"/><path class="cls-6" d="M112.94,268.27a5.19,5.19,0,1,1-5.19-5.18A5.19,5.19,0,0,1,112.94,268.27Z"/><path class="cls-6" d="M319.56,354.17a5.19,5.19,0,1,1-5.19-5.18A5.19,5.19,0,0,1,319.56,354.17Z"/><path class="cls-6" d="M629.08,275a5.19,5.19,0,1,1-5.18-5.18A5.18,5.18,0,0,1,629.08,275Z"/><g class="cls-7"><g class="cls-8"><circle class="cls-9" cx="25.27" cy="153.1" r="1.87"/><circle class="cls-9" cx="38.39" cy="153.1" r="1.87"/><circle class="cls-9" cx="51.52" cy="153.1" r="1.87"/><circle class="cls-9" cx="64.64" cy="153.1" r="1.87"/><circle class="cls-9" cx="77.77" cy="153.1" r="1.87"/><circle class="cls-9" cx="90.89" cy="153.1" r="1.87"/><circle class="cls-9" cx="104.02" cy="153.1" r="1.87"/><circle class="cls-9" cx="25.27" cy="166.22" r="1.87"/><circle class="cls-9" cx="38.39" cy="166.22" r="1.87"/><circle class="cls-9" cx="51.52" cy="166.22" r="1.87"/><circle class="cls-9" cx="64.64" cy="166.22" r="1.87"/><circle class="cls-9" cx="77.77" cy="166.22" r="1.87"/><circle class="cls-9" cx="90.89" cy="166.22" r="1.87"/><circle class="cls-9" cx="104.02" cy="166.22" r="1.87"/><circle class="cls-9" cx="25.27" cy="179.35" r="1.87"/><circle class="cls-9" cx="38.39" cy="179.35" r="1.87"/><circle class="cls-9" cx="51.52" cy="179.35" r="1.87"/><circle class="cls-9" cx="64.64" cy="179.35" r="1.87"/><circle class="cls-9" cx="77.77" cy="179.35" r="1.87"/><circle class="cls-9" cx="90.89" cy="179.35" r="1.87"/><circle class="cls-9" cx="104.02" cy="179.35" r="1.87"/><circle class="cls-9" cx="25.27" cy="192.47" r="1.87"/><circle class="cls-9" cx="38.39" cy="192.47" r="1.87"/><circle class="cls-9" cx="51.52" cy="192.47" r="1.87"/><circle class="cls-9" cx="64.64" cy="192.47" r="1.87"/><circle class="cls-9" cx="77.77" cy="192.47" r="1.87"/><circle class="cls-9" cx="90.89" cy="192.47" r="1.87"/><circle class="cls-9" cx="104.02" cy="192.47" r="1.87"/></g><g class="cls-8"><circle class="cls-9" cx="238.74" cy="377.19" r="1.87"/><circle class="cls-9" cx="251.87" cy="377.19" r="1.87"/><circle class="cls-9" cx="264.99" cy="377.19" r="1.87"/><circle class="cls-9" cx="278.12" cy="377.19" r="1.87"/><circle class="cls-9" cx="291.24" cy="377.19" r="1.87"/><circle class="cls-9" cx="238.74" cy="390.32" r="1.87"/><circle class="cls-9" cx="251.87" cy="390.32" r="1.87"/><circle class="cls-9" cx="264.99" cy="390.32" r="1.87"/><circle class="cls-9" cx="278.12" cy="390.32" r="1.87"/><circle class="cls-9" cx="291.24" cy="390.32" r="1.87"/></g><g class="cls-8"><circle class="cls-9" cx="615.34" cy="94" r="1.87"/><circle class="cls-9" cx="628.46" cy="94" r="1.87"/><circle class="cls-9" cx="641.59" cy="94" r="1.87"/><circle class="cls-9" cx="615.34" cy="107.13" r="1.87"/><circle class="cls-9" cx="628.46" cy="107.13" r="1.87"/><circle class="cls-9" cx="641.59" cy="107.13" r="1.87"/></g><g class="cls-8"><circle class="cls-9" cx="711.32" cy="258.21" r="1.87"/><circle class="cls-9" cx="711.32" cy="271.34" r="1.87"/><circle class="cls-9" cx="711.32" cy="284.46" r="1.87"/><circle class="cls-9" cx="711.32" cy="297.59" r="1.87"/><circle class="cls-9" cx="711.32" cy="310.71" r="1.87"/><circle class="cls-9" cx="711.32" cy="323.84" r="1.87"/><circle class="cls-9" cx="711.32" cy="336.96" r="1.87"/><circle class="cls-9" cx="698.19" cy="258.21" r="1.87"/><circle class="cls-9" cx="698.19" cy="271.34" r="1.87"/><circle class="cls-9" cx="698.19" cy="284.46" r="1.87"/><circle class="cls-9" cx="698.19" cy="297.59" r="1.87"/><circle class="cls-9" cx="698.19" cy="310.71" r="1.87"/><circle class="cls-9" cx="698.19" cy="323.84" r="1.87"/><circle class="cls-9" cx="698.19" cy="336.96" r="1.87"/><circle class="cls-9" cx="685.07" cy="258.21" r="1.87"/><circle class="cls-9" cx="685.07" cy="271.34" r="1.87"/><circle class="cls-9" cx="685.07" cy="284.46" r="1.87"/><circle class="cls-9" cx="685.07" cy="297.59" r="1.87"/><circle class="cls-9" cx="685.07" cy="310.71" r="1.87"/><circle class="cls-9" cx="685.07" cy="323.84" r="1.87"/><circle class="cls-9" cx="685.07" cy="336.96" r="1.87"/><circle class="cls-9" cx="671.94" cy="258.21" r="1.87"/><circle class="cls-9" cx="671.94" cy="271.34" r="1.87"/><circle class="cls-9" cx="671.94" cy="284.46" r="1.87"/><circle class="cls-9" cx="671.94" cy="297.59" r="1.87"/><circle class="cls-9" cx="671.94" cy="310.71" r="1.87"/><circle class="cls-9" cx="671.94" cy="323.84" r="1.87"/><circle class="cls-9" cx="671.94" cy="336.96" r="1.87"/></g></g><rect class="cls-9" x="187.43" y="102.54" width="364.2" height="231.51" rx="11.7"/><rect class="cls-2" x="190.07" y="104.83" width="358.92" height="221.13" rx="9.55"/><path class="cls-10" d="M427.68,123.73V266.27a7.78,7.78,0,0,1-7.78,7.78H205.28a7.78,7.78,0,0,1-7.78-7.78V123.73a7.78,7.78,0,0,1,7.78-7.78H419.9a7.78,7.78,0,0,1,7.78,7.78Z"/><rect class="cls-11" x="437.15" y="115.95" width="104.41" height="60.94" rx="7.78"/><rect class="cls-11" x="437.15" y="192.65" width="104.41" height="60.94" rx="7.78"/><rect class="cls-11" x="437.15" y="269.35" width="104.41" height="56.61" rx="7.78"/><rect class="cls-11" x="197.5" y="283.7" width="120.19" height="5.65" rx="2.82"/><rect class="cls-11" x="197.5" y="298.99" width="120.19" height="16.94" rx="2.82"/><rect class="cls-11" x="396.85" y="283.7" width="30.84" height="5.65" rx="2.82"/><rect class="cls-11" x="354.11" y="283.7" width="30.84" height="5.65" rx="2.82"/><rect class="cls-11" x="372.08" y="298.99" width="55.6" height="16.94" rx="2.82"/><g class="cls-3"><circle class="cls-12" cx="489.35" cy="146.42" r="15.75"/><path class="cls-12" d="M495.17,145.14l-9-5.19a1.47,1.47,0,0,0-2.21,1.28v10.38a1.48,1.48,0,0,0,2.21,1.28l9-5.19A1.47,1.47,0,0,0,495.17,145.14Z"/></g><g class="cls-3"><circle class="cls-12" cx="489.35" cy="223.12" r="15.75"/><path class="cls-12" d="M495.17,221.84l-9-5.19a1.47,1.47,0,0,0-2.21,1.28V228.3a1.48,1.48,0,0,0,2.21,1.29l9-5.19A1.47,1.47,0,0,0,495.17,221.84Z"/></g><g class="cls-3"><circle class="cls-12" cx="489.35" cy="297.65" r="15.75"/><path class="cls-12" d="M495.17,296.37l-9-5.19a1.48,1.48,0,0,0-2.21,1.29v10.37a1.47,1.47,0,0,0,2.21,1.28l9-5.19A1.47,1.47,0,0,0,495.17,296.37Z"/></g><path class="cls-13" d="M425,117.82,200.22,272.18a7.78,7.78,0,0,1-2.72-5.91V123.73a7.78,7.78,0,0,1,7.78-7.78H419.9A7.71,7.71,0,0,1,425,117.82Z"/><g class="cls-14"><path class="cls-15" d="M409.86,216.17s12.83-10.13,13.17-13c.64-5.46,2.6-9.74,14.34-13.36a3.3,3.3,0,0,1-.72,3.63,11.93,11.93,0,0,1-3.19,2.77s3.1,1.19,7.73-2.43,6.58-6.74,8.53-6c0,0,2.3-2.09,3.39-1.75a.94.94,0,0,1,.64,1.1c1.81-.28,1.45,4.93-1.77,9.17-4.63,6.1-10.41,11.35-15.14,13.09-3.56,1.29-18.22,16.23-18.22,16.23Z"/><path class="cls-16" d="M370.24,267.85c-5.6,1.89-36.67-45.89-36.67-45.89-12-13.82-1.23-59.34,9.64-43.38,0,0,28.26,51.14,31.31,55.26C378.32,239,390.93,260.86,370.24,267.85Z"/><polygon class="cls-17" points="253.31 315.28 225.45 526.73 261.46 533.15 291.37 396.62 328.3 535.28 357.29 528.81 335.23 315.28 253.31 315.28"/><path class="cls-16" d="M335.23,315.28H253.31s-6.3-2.77-.82-14.85c2-4.51,1.16-16.13.82-32.09-.7-31.54-10.05-83.88,1.5-89.89,6.91-3.6,21.61-8.36,32.29-11.6.64-.18,1.26-.38,1.87-.56,6.23-1.85,10.68-3.09,10.68-3.09a126.89,126.89,0,0,1,15.64,3.86l1.77.52c2.73.83,5.77,1.81,9.15,3,18.32,6.22,16.27,4,18.69,26.88C346.84,215.7,335.23,315.28,335.23,315.28Z"/><path class="cls-18" d="M317.06,167.58a14.66,14.66,0,0,1-4.63,9.82,15,15,0,0,1-25.33-10.55c.64-.18,1.26-.38,1.87-.56,6.23-1.85,10.68-3.09,10.68-3.09a126.89,126.89,0,0,1,15.64,3.86Z"/><path class="cls-19" d="M315.26,134.83,314,159.75l-.38,7.11a11.37,11.37,0,0,1-22.72-.87l.32-12.69.54-21.07Z"/><path class="cls-20" d="M315.26,139.81,314,163.27c-11,.45-19.09-4-22.78-10l.54-16.06Z"/><path class="cls-21" d="M284.4,110.43s-10.58-1.32-9.37,11.94c.94,10.27,14.91,24,14.91,24S298.76,115.39,284.4,110.43Z"/><path class="cls-22" d="M327.61,120a48.94,48.94,0,0,1-2.73,4.61,8.38,8.38,0,0,0-1.42,5.07c-.18-2.88-2.09-5.31-3.74-7.69s-3.15-5.26-2.36-8,5.58-6.88,8.51-5.15C329.14,110.71,328.89,117.07,327.61,120Z"/><path class="cls-15" d="M324,120.51a84.55,84.55,0,0,1-.33,17.1c-1.32,10.39-.84,22.6-16.16,23.41-16.34.87-21.75-17.42-21.75-17.42s-8.68-1.61-9.28-7.48,5.48-6.2,7.46-4.55c0,0,2.24-21.88,22.45-21.88C324.25,109.69,324,120.51,324,120.51Z"/><path class="cls-21" d="M304.82,137.2a1.62,1.62,0,1,1-1.61-1.62A1.61,1.61,0,0,1,304.82,137.2Z"/><path class="cls-21" d="M319.46,137.2a1.62,1.62,0,1,1-1.62-1.62A1.61,1.61,0,0,1,319.46,137.2Z"/><path class="cls-23" d="M297.31,131.57a6.59,6.59,0,0,1,7.51-2.53"/><path class="cls-23" d="M313.63,129s3.69-3.37,7.32.32"/><path class="cls-24" d="M310.39,133s1.75,4.47,3.24,7.25-2.91,4-2.91,4"/><path class="cls-24" d="M304.53,149.26a7.66,7.66,0,0,0,8.25,1.36"/><path class="cls-24" d="M283.68,138s-.05-5-3.8-3.66"/><path class="cls-21" d="M288.64,114.63s9.18,9.36,4.16,12.94a16,16,0,0,0-6.47,9.63s.11-2-2.37-5.63S276,115,288.64,114.63Z"/><path class="cls-16" d="M370.24,267.85c6.68,4.35,57.45-49.88,57.45-49.88l-9-11.79s-38.6,24.22-44.16,27.66C366.53,238.79,347.77,253.23,370.24,267.85Z"/><polygon class="cls-25" points="291.37 396.62 301.3 351.79 297.1 418.13 291.37 396.62"/><path class="cls-26" d="M343.24,236.32s2.27-24.79,1.89-32.66a311.09,311.09,0,0,1,3.3,40Z"/><path class="cls-16" d="M257.45,227.87s11.88-50.9-.84-50.3c0,0-4.15.49-12.27,13.09-5.67,8.81-11.9,24.08-23.24,48.92-5.35,11.74-12.06,27.63.39,28.48,6.72.46,13.79-3.23,17.94-10.95C247.06,243,257.45,227.87,257.45,227.87Z"/><path class="cls-26" d="M268.09,291.24,332.79,276S312.44,291.24,268.09,291.24Z"/><path class="cls-26" d="M250.71,238.1s10.45-18.49,16-27.51l-13,70.73S252.4,252.43,250.71,238.1Z"/><polygon class="cls-26" points="292.32 262.19 253.62 280.26 255.61 261.68 292.32 262.19"/><path class="cls-9" d="M316.05,264.22H302.47a4.42,4.42,0,0,1-4.35-5.21l6.39-34.89a4.42,4.42,0,0,1,4.34-3.63h13.58a4.43,4.43,0,0,1,4.35,5.22l-6.39,34.89A4.41,4.41,0,0,1,316.05,264.22Z"/><path class="cls-10" d="M317.73,265.7H304.15a4.41,4.41,0,0,1-4.34-5.22l6.38-34.88a4.43,4.43,0,0,1,4.35-3.63h13.58a4.42,4.42,0,0,1,4.35,5.22l-6.39,34.89A4.41,4.41,0,0,1,317.73,265.7Z"/><path class="cls-9" d="M310.36,235.23h-2.43a.84.84,0,0,1-.83-1l1.56-8.52a.84.84,0,0,1,.83-.7h2.43a.84.84,0,0,1,.83,1l-1.56,8.52A.84.84,0,0,1,310.36,235.23Z"/><path class="cls-15" d="M279.56,246.83a53.75,53.75,0,0,0,11.69-1.77c2.17-.67,6.5-1.45,7.92-3.52s1.31-6.6,2.75-6.79c1.11-.15,3.34,3.37,2.76,5.76s-.83,3.62-1.67,4.65c-.29.35,9,1,14.95-.28,4.06-.9,2.86,3.12.11,4.38a2.42,2.42,0,0,1-1.9,3.28s0,3.27-2.71,3.42a4.27,4.27,0,0,1-3.21,3,45.8,45.8,0,0,1-13.91.69c-2.67-.23-15,1.92-15,1.92Z"/><path class="cls-16" d="M221.09,268.25c9.45,1.65,65.78-4.71,65.78-4.71l-1.41-19.7s-45.89,2.13-52,1.59C213.21,243.62,209.33,266.2,221.09,268.25Z"/><path class="cls-21" d="M290.87,99.77a6.23,6.23,0,0,1,3.41-2.15c1.36-.15,2.91,1.12,2.46,2.42a68.61,68.61,0,0,1,14.42-4.46,6,6,0,0,1,3.73.11c1.14.54,1.85,2.13,1.06,3.12,2.4.9,5.06.32,7.61,0s5.46-.17,7.19,1.72,1.65,4.39,1.59,6.76a47.85,47.85,0,0,1-.9,9.72,24,24,0,0,1-7.25,12.27c1.07-3.66-.85-7.72-3.85-10.07s-6.87-3.29-10.66-3.73a49.76,49.76,0,0,0-13.68.34c-3.41.57-8.28,3-11.67,1.45C276.83,113.9,288,102.67,290.87,99.77Z"/></g><rect class="cls-4" x="353.42" y="98.14" width="60.06" height="32.76" rx="6.52"/><polygon class="cls-4" points="363.48 128.78 363.48 137.76 373.1 128.14 363.48 128.78"/><circle class="cls-2" cx="367.23" cy="114.52" r="3.75"/><circle class="cls-2" cx="383.45" cy="114.52" r="3.75"/><circle class="cls-2" cx="399.67" cy="114.52" r="3.75"/><polygon class="cls-19" points="536.3 386.81 534.17 412.72 545.22 412.72 550.96 386.81 536.3 386.81"/><path class="cls-27" d="M546.42,407.3s4.8,7.75,1.2,9.13-27.3,1.5-33.15.62,13-8.89,17.37-10.14S537.56,412.22,546.42,407.3Z"/><polygon class="cls-19" points="594.4 386.81 596.52 412.72 585.48 412.72 579.74 386.81 594.4 386.81"/><path class="cls-27" d="M584.27,407.3s-4.79,7.75-1.19,9.13,27.3,1.5,33.15.62-13.06-8.89-17.38-10.14S593.13,412.22,584.27,407.3Z"/><path class="cls-28" d="M534.08,245.14l-5,155.35H552.4l5-103.48,20,106.44,25.4-4.23S579.89,283.11,576,245.14Z"/><polygon class="cls-29" points="557.43 297.01 554.43 275.01 556.24 313.26 557.43 297.01"/><line class="cls-30" x1="568.49" y1="245.14" x2="595.49" y2="400.1"/><path class="cls-21" d="M562.87,130.63c5,0,10.27,2.62,12,7.31,1.3,3.61.32,7.86,2.14,11.25,1.35,2.49,4,4.1,5.23,6.67,2.5,5.31-2.37,11.64-.82,17.3,1.44,5.24,7.92,8.25,8.46,13.65.35,3.45-2.08,6.76-5.2,8.27s-6.78,1.5-10.2.92c-8.39-1.4-16.29-6-24.79-5.57-3.5.19-7.16,1.21-10.4-.14-2.3-1-4-3-5.45-5-1.69-2.32-3.31-5-3.15-7.82.23-4.2,4-7.15,6.32-10.68a18,18,0,0,0,2.66-12.37c-3.09-20.21,8.27-19.58,9.72-19.61s5.75-2.75,7.5-3.25A21.59,21.59,0,0,1,562.87,130.63Z"/><path class="cls-15" d="M509.5,215.38c-4.81-3.83-24.37-16.78-24.56-18.59-.36-3.4-1.55-6.08-8.84-8.41a2.08,2.08,0,0,0,.42,2.27,7.51,7.51,0,0,0,2,1.74s-1.94.72-4.8-1.56-4.05-4.25-5.27-3.79c0,0-1.42-1.31-2.1-1.11a.59.59,0,0,0-.41.68c-1.12-.19-.93,3.06,1,5.73,2.84,3.82,7.85,6.74,10.78,7.85,2.21.84,16.63,22.17,26.31,24.48C506.83,225.34,511.74,217.16,509.5,215.38Z"/><path class="cls-15" d="M524.63,196.44S503,211.53,500.92,215.28s-.53,13.76,9.11,7.33,24.82-18.1,24.82-18.1Z"/><path class="cls-16" d="M535.74,182.72a21.14,21.14,0,0,0-9.89,6.21l-8.68,10.31L533.58,212S537.58,188.81,535.74,182.72Z"/><path class="cls-16" d="M576,245.14H534.07a89.19,89.19,0,0,0-2.16-18.36c-2.34-11.16-1.17-17,1.16-22.83s-1.83-19.31,2.67-21.23c1.83-.78,5-2,8.13-3.25l2.32-.9c3.62-1.4,6.67-2.56,6.67-2.56h7.55s5.2,1.72,10.54,3.85l2.11.86h0a53.68,53.68,0,0,1,7,3.41C585.74,187.64,576,245.14,576,245.14Z"/><path class="cls-15" d="M550.32,157.46l.8,15.51.23,4.43a7.09,7.09,0,0,0,14.16-.54l-.2-7.9L565,155.83Z"/><path class="cls-20" d="M550.32,157.46l.8,14.61c6.88.28,11.89-2.52,14.19-6.24l-.34-10Z"/><path class="cls-15" d="M544.86,145.44a52.52,52.52,0,0,0,.21,10.65c.82,6.47,1.54,13.88,10.06,14.58,10.16.83,13.55-10.85,13.55-10.85s4.72-1.1,5.3-4.32a2.86,2.86,0,0,0-4.17-3.18s-1.39-13.62-14-13.62C544.71,138.7,544.86,145.44,544.86,145.44Z"/><path class="cls-18" d="M573.06,180.72h0c-8.6,10.47-18.74,10-18.74,10-8-1.75-10.45-11.24-10.45-11.24l2.32-.9c3.62-1.4,6.67-2.56,6.67-2.56h7.55s5.2,1.72,10.54,3.85Z"/><path class="cls-15" d="M571,179.86c-8.77,9.53-16.37,8.53-16.37,8.53-8.17-3.13-8.39-9.82-8.39-9.82,3.62-1.4,6.67-2.56,6.67-2.56h7.55S565.61,177.73,571,179.86Z"/><path class="cls-21" d="M549.24,135.76s1.17,9.85-5.16,13.1C544.08,148.86,540.91,136.93,549.24,135.76Z"/><path class="cls-21" d="M547.32,136.7s2.25,8.58,7.83,9.08,4.59,5,9.53,5.54c2.94.31,4.25,3.37,4.25,3.37a5.56,5.56,0,0,1,3.1-4.12C574.7,149.49,565.74,126.78,547.32,136.7Z"/><path class="cls-21" d="M556.79,157.35a1,1,0,1,0,1-1A1,1,0,0,0,556.79,157.35Z"/><path class="cls-21" d="M548,157.35a1,1,0,1,0,1-1A1,1,0,0,0,548,157.35Z"/><path class="cls-31" d="M561.3,154a3.94,3.94,0,0,0-4.51-1.51"/><path class="cls-31" d="M551.51,152.42a3.12,3.12,0,0,0-4.4.19"/><path class="cls-32" d="M553.45,154.83s-1.05,2.68-1.94,4.35,1.74,2.41,1.74,2.41"/><path class="cls-32" d="M559.27,163.49a4.6,4.6,0,0,1-4.69,1.78"/><path class="cls-32" d="M569.78,156.67s0-3,2.29-2.2"/><path class="cls-33" d="M534.93,235.16h-38.4a1.37,1.37,0,0,1-1.38-1.37h0a1.38,1.38,0,0,1,1.38-1.38h38.4a1.37,1.37,0,0,1,1.37,1.38h0A1.37,1.37,0,0,1,534.93,235.16Z"/><path class="cls-9" d="M537.81,232.41H499.06l-7.38-29.74a2,2,0,0,1,2-2.51h34.59a2,2,0,0,1,2,1.54Z"/><path class="cls-10" d="M535.15,232.41H496.4L489,202.67a2,2,0,0,1,2-2.51h34.59a2,2,0,0,1,2,1.54Z"/><rect class="cls-34" x="534.3" y="232.41" width="31.64" height="2.75" rx="1.29"/><path class="cls-9" d="M513.5,214.4c.71,1.84.12,3.78-1.32,4.33s-3.17-.49-3.88-2.34-.12-3.78,1.32-4.33S512.79,212.55,513.5,214.4Z"/><polygon class="cls-26" points="578.11 232.41 575.59 199.75 580.43 213.5 578.11 232.41"/><path class="cls-15" d="M578.44,203.07s6,32.14,7.46,37.4c1,3.4,7.94,5.72,10.13,1.22.49-1,.37-2.64.32-4.32-.34-10.4-7.61-36.84-7.61-36.84Z"/><path class="cls-16" d="M580.08,184.14s3.57,1.83,6.57,7,7.14,14.29,6.87,16.5c-1.56,4.25-13.87,8.65-13.87,8.65S571.42,189.24,580.08,184.14Z"/><path class="cls-15" d="M587,234.26s-19-.41-22.59-2.56c-4.88-2.91-6-1.65-8.84-2.35-4.54-1.13-4-.21-4-.21s.21,2.62,3.72,3c1.77.16,4.42.91,3.86,1.35,0,0-14.08,1.46-16.92,1.71s-1.45,2.44.72,2.94a3.45,3.45,0,0,0,3.37,1.12s-.46.92,5,.92,10.87-2.88,13.62-1.63,17.6,7,27,5.67c4.5-.63,4.53-2.8,4.53-5.08C596.4,235.16,593.48,234.66,587,234.26Z"/><polygon class="cls-19" points="193 386.81 186.74 412.72 175.69 412.72 178.35 386.81 193 386.81"/><path class="cls-28" d="M174.49,407.3s-4.8,7.75-1.19,9.13,27.3,1.5,33.14.62-13.05-8.89-17.37-10.14S183.35,412.22,174.49,407.3Z"/><polygon class="cls-19" points="158.21 386.81 154.42 412.72 143.37 412.72 143.55 386.81 158.21 386.81"/><path class="cls-35" d="M142.17,407.3s-4.8,7.75-1.19,9.13,27.3,1.5,33.14.62-13.05-8.89-17.37-10.14S151,412.22,142.17,407.3Z"/><path class="cls-36" d="M139.64,261.5l.81,138.27H158l12.39-101.59L184.5,339.4l-10.57,60.37H193s16.77-52.17,16.08-62.42-20-80.07-20-80.07Z"/><polygon class="cls-37" points="170.38 298.18 172.24 279.31 174.37 309.84 170.38 298.18"/><line class="cls-38" x1="149.54" y1="259.83" x2="148.53" y2="399.77"/><path class="cls-15" d="M203.25,198.18s11.33,21.43,11.58,28-7,5.11-10.75-.82-9.75-22.78-9.75-22.78Z"/><path class="cls-16" d="M205.37,200a25.08,25.08,0,0,1-11,9.31c-1.61.73-3-1.2-4-3.49A35.53,35.53,0,0,1,188.5,200s-8.93-27.63-1.06-26.64c0,0,6.7.47,11.62,10.17A119.64,119.64,0,0,1,204,196C204.52,197.35,205,198.7,205.37,200Z"/><path class="cls-18" d="M205.37,200a25.08,25.08,0,0,1-11,9.31c-1.61.73-3-1.2-4-3.49A42.41,42.41,0,0,0,204,196C204.52,197.35,205,198.7,205.37,200Z"/><path class="cls-16" d="M189.47,258.8c-4.94,5.62-37.53,4.79-49.83,2.7-2.16-.37-4.3-1.2-.89-8.72,1.28-2.8.73-10,.51-20-.43-19.65-6.26-52.25.93-56,4.31-2.24,13.47-5.2,20.12-7.22l1.16-.35c3.88-1.16,6.65-1.93,6.65-1.93a79.36,79.36,0,0,1,9.74,2.4L179,170c1.7.52,3.59,1.13,5.7,1.84,4.09,1.39,7.08,2.24,7.82,3.6,1.95,3.57,1.2,9.9,1.33,19C194,205.94,193.85,253.84,189.47,258.8Z"/><polygon class="cls-26" points="137.73 210.55 144.76 193.41 139.64 237.5 137.73 210.55"/><path class="cls-18" d="M179,170a9.24,9.24,0,0,1-2.88,6.12,9.35,9.35,0,0,1-15.78-6.57l1.16-.35c3.88-1.16,6.65-1.93,6.65-1.93a79.36,79.36,0,0,1,9.74,2.4Z"/><path class="cls-21" d="M158.63,134.45s-4.18.38-5.84,7.43c-1.7,7.21,7.09,19.06,10.41,18.37C163.2,160.25,167.57,137.54,158.63,134.45Z"/><path class="cls-21" d="M185.54,140.39a29.64,29.64,0,0,1-1.7,2.87,5.28,5.28,0,0,0-.89,3.17c-.1-1.8-1.3-3.31-2.32-4.8s-2-3.27-1.48-5,3.48-4.28,5.31-3.2C186.49,134.62,186.34,138.58,185.54,140.39Z"/><path class="cls-19" d="M177.85,149.65,177,165.16l-.23,4.43a7.08,7.08,0,0,1-7.07,6.71,7.07,7.07,0,0,1-7.08-7.25l.19-7.9.34-13.13Z"/><path class="cls-20" d="M177.85,152.74,177,167.36c-6.87.28-11.89-2.52-14.19-6.24l.34-10Z"/><path class="cls-15" d="M183.3,140.72a53,53,0,0,1-.2,10.66c-.82,6.47-.53,14.07-10.07,14.58-10.18.54-13.55-10.85-13.55-10.85s-5.4-1-5.77-4.66,3.41-3.87,4.64-2.84c0,0,1.4-13.62,14-13.62C183.45,134,183.3,140.72,183.3,140.72Z"/><path class="cls-21" d="M171.66,150.5a1,1,0,1,1-1-1A1,1,0,0,1,171.66,150.5Z"/><path class="cls-21" d="M181.39,150a1,1,0,1,1-1-1A1,1,0,0,1,181.39,150Z"/><path class="cls-31" d="M166.67,147.61a4.09,4.09,0,0,1,4.68-1.57"/><path class="cls-31" d="M176.83,146a3.22,3.22,0,0,1,4.56.2"/><path class="cls-32" d="M174.82,148.5s1.09,2.78,2,4.52-1.81,2.5-1.81,2.5"/><path class="cls-32" d="M171.16,158.63a4.78,4.78,0,0,0,5.14.85"/><path class="cls-32" d="M158.18,151.62s0-3.13-2.37-2.27"/><path class="cls-21" d="M161.27,137.06s5.72,5.83,2.59,8.06a9.94,9.94,0,0,0-4,6s.07-1.24-1.48-3.51S153.42,137.28,161.27,137.06Z"/><path class="cls-21" d="M159.5,137.45c-1.92-3-.51-8.59,5.48-9.53s10.12.37,12.36-3.67,9-6.64,11-.69-2.62,14.91-8.39,14.64-5.51-1-9.17,1.16S162.63,142.3,159.5,137.45Z"/><path class="cls-15" d="M130,199.33s-11.33,21.43-11.58,28,7,5.11,10.75-.82,9.75-22.78,9.75-22.78Z"/><path class="cls-15" d="M210.75,218.94,192.9,205.73c-1.64-1.22-4-3-4.87-3.59-1.36-.95-9.32-2.33-10.42-2.15a46.38,46.38,0,0,0-5.05,1c-.89.33.24,1.47,1.12,2a29.51,29.51,0,0,0,8.08,3.17,11.78,11.78,0,0,1,4.72,2.2c1,.74,18.84,18.91,19.52,19.35Z"/><path class="cls-15" d="M189.83,203.6s-6.37-5.95-7.31-5.86-.28,1.43,2.23,3.46a18.21,18.21,0,0,0,2.52,2.14A3.37,3.37,0,0,0,189.83,203.6Z"/><path class="cls-9" d="M184.77,225.58l-23.19,2.78a1.93,1.93,0,0,1-2.09-2.41l5.54-21.3a2,2,0,0,1,1.64-1.43l23.19-2.77a1.93,1.93,0,0,1,2.1,2.4l-5.55,21.3A1.92,1.92,0,0,1,184.77,225.58Z"/><path class="cls-10" d="M185.8,226.29l-23.19,2.77a1.92,1.92,0,0,1-2.09-2.4l5.54-21.3a1.92,1.92,0,0,1,1.64-1.43l23.19-2.78a1.94,1.94,0,0,1,2.1,2.41l-5.55,21.3A2,2,0,0,1,185.8,226.29Z"/><path class="cls-9" d="M168.49,209.78l1.09-4.18a.62.62,0,0,0-.67-.77l-1.12.14a.61.61,0,0,0-.52.45l-1.09,4.18a.62.62,0,0,0,.67.77l1.12-.14A.61.61,0,0,0,168.49,209.78Z"/><path class="cls-15" d="M122.7,221c7.09.28,29.21-.18,32.14-1.18,1.26-.42,4.36-1.07,5.15-2.31s1.48-3.15,2.31-3.29c.65-.1.5,2,.3,2.7a6.83,6.83,0,0,1-1.08,2.67c-.15.21,5.29,1,8.72.13,2.35-.6,1.91,1.28.33,2.07a1.6,1.6,0,0,1-1,2.17s.29,1.82-1.31,2a2.82,2.82,0,0,1-2,1.64c-2,.56-5.47.56-8.1.67-1.57.06-31.71,4.76-37,3.43C118.8,231.1,120.4,220.91,122.7,221Z"/><path class="cls-16" d="M143,202.21s-.52,2-1.29,4c-.86,2.24-2,4.54-3.18,4.33,0,0-15.64-4.94-15.12-6.54a39.06,39.06,0,0,1,1.89-4.46c2.59-5.38,6.7-12.4,8.36-15.12,5.66-9.29,8-8.11,8-8.11C149.59,175.93,143,202.21,143,202.21Z"/><path class="cls-18" d="M141.73,206.21c-.86,2.24-2,4.54-3.18,4.33,0,0-15.64-4.94-15.12-6.54a39.06,39.06,0,0,1,1.89-4.46A140.92,140.92,0,0,0,141.73,206.21Z"/><path class="cls-26" d="M146.69,250s26-4.17,40-12.5A50.49,50.49,0,0,1,146.69,250Z"/><rect class="cls-4" x="397.33" y="304.38" width="79.65" height="44.7" rx="6.02"/><path class="cls-39" d="M404.49,337.54c6.3,0,6.3-7.5,12.6-7.5s6.3-10,12.6-10,6.3,3.83,12.6,3.83,6.3-9.25,12.6-9.25,6.3,14.52,12.6,14.52"/><path class="cls-2" d="M406.33,337.54a1.84,1.84,0,1,0-1.84,1.83A1.84,1.84,0,0,0,406.33,337.54Z"/><path class="cls-2" d="M469.33,329.14a1.84,1.84,0,1,0-1.84,1.83A1.84,1.84,0,0,0,469.33,329.14Z"/><rect class="cls-4" x="71.77" y="76.21" width="83.9" height="36.99" rx="8.19" transform="translate(227.45 189.42) rotate(180)"/><polygon class="cls-4" points="145.62 111.08 145.62 120.06 135.99 110.44 145.62 111.08"/><line class="cls-40" x1="79.53" y1="85.29" x2="98.25" y2="85.29"/><line class="cls-40" x1="104.92" y1="85.29" x2="147.92" y2="85.29"/><line class="cls-40" x1="79.53" y1="94.71" x2="114.43" y2="94.71"/><line class="cls-40" x1="119.77" y1="94.71" x2="130.1" y2="94.71"/><line class="cls-40" x1="135.64" y1="94.71" x2="147.92" y2="94.71"/><line class="cls-40" x1="79.53" y1="104.12" x2="87.43" y2="104.12"/><line class="cls-40" x1="92.27" y1="104.12" x2="120.77" y2="104.12"/><rect class="cls-4" x="477.12" y="61.82" width="28.99" height="28.99" rx="5.83"/><path class="cls-2" d="M501.48,74.82l-.44-1.9a.69.69,0,0,0-.83-.52l-1.11.26a.71.71,0,0,1-.75-.33,8,8,0,0,0-1.6-1.83.7.7,0,0,1-.2-.84l.56-1.15a.71.71,0,0,0-.32-.93L495,66.74a.69.69,0,0,0-.92.32l-.61,1.25a.68.68,0,0,1-.74.38,8.5,8.5,0,0,0-1.14-.08,8.77,8.77,0,0,0-1.15.08.7.7,0,0,1-.74-.38l-.6-1.25a.69.69,0,0,0-.92-.32l-1.76.84a.7.7,0,0,0-.32.93l.55,1.15a.71.71,0,0,1-.19.84,7.55,7.55,0,0,0-1.6,1.83.71.71,0,0,1-.75.33L483,72.4a.68.68,0,0,0-.82.52l-.44,1.9a.7.7,0,0,0,.52.83l1.42.32a5.83,5.83,0,0,0,0,.59,7.84,7.84,0,0,0,.48,2.71.7.7,0,0,1-.21.79l-.55.44a.69.69,0,0,0-.11,1L484.5,83a.69.69,0,0,0,1,.11l.38-.31a.71.71,0,0,1,.87,0,7.75,7.75,0,0,0,2.71,1.39.69.69,0,0,1,.52.67v.4a.69.69,0,0,0,.69.69h1.95a.69.69,0,0,0,.69-.69v-.4a.71.71,0,0,1,.52-.67,7.67,7.67,0,0,0,2.71-1.39.72.72,0,0,1,.88,0l.38.31a.7.7,0,0,0,1-.11L500,81.47a.7.7,0,0,0-.11-1l-.55-.44a.68.68,0,0,1-.21-.79,7.84,7.84,0,0,0,.48-2.71c0-.2,0-.39,0-.59l1.42-.32A.7.7,0,0,0,501.48,74.82Zm-9.86,6.68a4.94,4.94,0,1,1,4.94-4.94A4.95,4.95,0,0,1,491.62,81.5Z"/><circle class="cls-4" cx="634.28" cy="191.37" r="20.05" transform="translate(343.78 786.81) rotate(-80.78)"/><circle class="cls-39" cx="634.28" cy="191.37" r="11.27" transform="translate(302.3 764.72) rotate(-76.72)"/><polyline class="cls-39" points="634.28 184 634.28 191.37 630.39 195.26"/><line class="cls-39" x1="634.28" y1="180.1" x2="634.28" y2="181.18"/><line class="cls-39" x1="634.28" y1="201.57" x2="634.28" y2="202.64"/><line class="cls-39" x1="645.55" y1="191.37" x2="644.47" y2="191.37"/><line class="cls-39" x1="624.09" y1="191.37" x2="623.01" y2="191.37"/><line class="cls-6" x1="58.3" y1="417.61" x2="680.76" y2="417.61"/></g></svg>